<?xml version="1.0" encoding="UTF-8" standalone="no"?>
<svg
   xmlns:dc="http://purl.org/dc/elements/1.1/"
   xmlns:cc="http://creativecommons.org/ns#"
   xmlns:rdf="http://www.w3.org/1999/02/22-rdf-syntax-ns#"
   xmlns:svg="http://www.w3.org/2000/svg"
   xmlns="http://www.w3.org/2000/svg"
   xmlns:xlink="http://www.w3.org/1999/xlink"
   xmlns:sodipodi="http://sodipodi.sourceforge.net/DTD/sodipodi-0.dtd"
   xmlns:inkscape="http://www.inkscape.org/namespaces/inkscape"
   width="355"
   height="386"
   fill="none"
   version="1.1"
   id="svg80"
   sodipodi:docname="panther-santa.svg"
   inkscape:version="1.0.2-2 (e86c870879, 2021-01-15)">
  <metadata
     id="metadata84">
    <rdf:RDF>
      <cc:Work
         rdf:about="">
        <dc:format>image/svg+xml</dc:format>
        <dc:type
           rdf:resource="http://purl.org/dc/dcmitype/StillImage" />
      </cc:Work>
    </rdf:RDF>
  </metadata>
  <sodipodi:namedview
     pagecolor="#ffffff"
     bordercolor="#666666"
     borderopacity="1"
     objecttolerance="10"
     gridtolerance="10"
     guidetolerance="10"
     inkscape:pageopacity="0"
     inkscape:pageshadow="2"
     inkscape:window-width="1920"
     inkscape:window-height="1001"
     id="namedview82"
     showgrid="false"
     inkscape:zoom="2.1502591"
     inkscape:cx="177.5"
     inkscape:cy="193"
     inkscape:window-x="-9"
     inkscape:window-y="-9"
     inkscape:window-maximized="1"
     inkscape:current-layer="svg80" />
  <style
     id="style2">.B{fill-rule:evenodd}.C{fill:#633001}.D{fill:#d1884f}.E{stroke:#bdc2c4}</style>
  <mask
     id="A"
     width="240"
     height="114"
     x="48"
     y="0"
     mask-type="alpha"
     maskUnits="userSpaceOnUse">
    <path
       fill="#c4c4c4"
       d="M48 0h240v113.5s-72.275-15.086-120.5-15c-47.844.085-119.5 15-119.5 15V0z"
       id="path14" />
  </mask>
  <mask
     id="B"
     width="240"
     height="114"
     x="48"
     y="0"
     mask-type="alpha"
     maskUnits="userSpaceOnUse">
    <path
       fill="#c4c4c4"
       d="M48 0h240v113.5s-72.275-15.086-120.5-15c-47.844.085-119.5 15-119.5 15V0z"
       id="path35" />
  </mask>
  <mask
     id="C"
     fill="#fff">
    <use
       xlink:href="#J"
       id="use54" />
  </mask>
  <defs
     id="defs78">
    <linearGradient
       id="D"
       x1="108.5"
       x2="108.5"
       y1="118"
       y2="83"
       gradientUnits="userSpaceOnUse">
      <stop
         stop-color="#633001"
         id="stop63" />
      <stop
         offset="1"
         stop-color="#633001"
         stop-opacity="0"
         id="stop65" />
    </linearGradient>
    <linearGradient
       id="E"
       x1="225.5"
       x2="225.5"
       y1="118"
       y2="83"
       gradientUnits="userSpaceOnUse">
      <stop
         stop-color="#633001"
         id="stop68" />
      <stop
         offset="1"
         stop-color="#633001"
         stop-opacity="0"
         id="stop70" />
    </linearGradient>
    <path
       id="F"
       d="M296.5 85C224.998 11.212 27 57.366 27 132.564h256.177S289.873 225.5 332 225.5c6.072-12.533 36.002-66.712-35.5-140.5z" />
    <path
       id="G"
       d="M62.068 58.861C56.993 31.406 77.846 6.042 105.494 6.042c24.397 0 44.176 19.98 44.176 44.627v55.018a261.4 261.4 0 0 1 18.583-.659 261.56 261.56 0 0 1 17.865.608V50.669c0-24.647 19.778-44.627 44.176-44.627 27.647 0 48.5 25.364 43.425 52.819l-11.955 64.671c41.029 18.095 72.053 49.524 72.053 89.016v23.894c0 32.477-21.268 59.668-51.002 78.024-29.965 18.499-70.502 29.496-114.562 29.496s-84.597-10.997-114.562-29.496C23.958 296.11 2.689 268.919 2.689 236.442v-23.894c0-39.283 30.705-70.591 71.388-88.723L62.068 58.861zm184.376 73.167l13.989-75.673c3.523-19.055-10.951-36.659-30.139-36.659-16.934 0-30.661 13.867-30.661 30.973v70.014c-4.437-.575-8.945-1.03-13.515-1.36a247.61 247.61 0 0 0-17.865-.641 247.87 247.87 0 0 0-18.583.694 239.98 239.98 0 0 0-13.516 1.401V50.669c0-17.106-13.727-30.973-30.66-30.973-19.189 0-33.663 17.604-30.14 36.659l14.035 75.925c-43.877 16.465-73.185 46.254-73.185 80.269v23.894c0 51.841 68.075 93.866 152.048 93.866s152.049-42.025 152.049-93.866v-23.894c0-34.188-29.608-64.108-73.858-80.52z" />
    <path
       id="H"
       d="M75.354 56.354c-3.522-19.055 10.951-36.659 30.14-36.659 16.933 0 30.66 13.867 30.66 30.973v70.108c10.348-1.373 21.087-2.095 32.099-2.095 10.758 0 21.254.689 31.38 2.001V50.669c0-17.106 13.727-30.973 30.661-30.973 19.188 0 33.662 17.604 30.139 36.659l-13.989 75.673c44.25 16.412 73.858 46.332 73.858 80.52 0 51.841-68.075 93.867-152.049 93.867S16.205 264.389 16.205 212.548c0-34.015 29.308-63.804 73.185-80.269L75.354 56.354z" />
    <path
       id="I"
       d="M245.38 160.834a479.98 479.98 0 0 0-165.76 0L40.453 167.7c-10.88 1.907-21.246-5.367-23.153-16.247s5.366-21.245 16.246-23.153l39.167-6.866c59.404-10.413 120.168-10.413 179.572 0l39.167 6.866c10.88 1.908 18.154 12.274 16.247 23.153s-12.274 18.154-23.153 16.247l-39.167-6.866z" />
    <path
       id="J"
       d="M246.382 290.142C246.382 335.185 228.236 386 168 386s-78.382-50.815-78.382-95.858 35.093-55.609 78.382-55.609 78.382 10.565 78.382 55.609z" />
  </defs>
</svg>
