<?xml version="1.0" encoding="UTF-8" standalone="no"?>
<svg
   xmlns:dc="http://purl.org/dc/elements/1.1/"
   xmlns:cc="http://creativecommons.org/ns#"
   xmlns:rdf="http://www.w3.org/1999/02/22-rdf-syntax-ns#"
   xmlns:svg="http://www.w3.org/2000/svg"
   xmlns="http://www.w3.org/2000/svg"
   xmlns:xlink="http://www.w3.org/1999/xlink"
   xmlns:sodipodi="http://sodipodi.sourceforge.net/DTD/sodipodi-0.dtd"
   xmlns:inkscape="http://www.inkscape.org/namespaces/inkscape"
   width="192"
   height="192"
   fill="none"
   version="1.1"
   id="svg40"
   sodipodi:docname="ifo-ten.svg"
   inkscape:version="1.0.2-2 (e86c870879, 2021-01-15)">
  <metadata
     id="metadata44">
    <rdf:RDF>
      <cc:Work
         rdf:about="">
        <dc:format>image/svg+xml</dc:format>
        <dc:type
           rdf:resource="http://purl.org/dc/dcmitype/StillImage" />
      </cc:Work>
    </rdf:RDF>
  </metadata>
  <sodipodi:namedview
     pagecolor="#ffffff"
     bordercolor="#666666"
     borderopacity="1"
     objecttolerance="10"
     gridtolerance="10"
     guidetolerance="10"
     inkscape:pageopacity="0"
     inkscape:pageshadow="2"
     inkscape:window-width="1920"
     inkscape:window-height="1001"
     id="namedview42"
     showgrid="false"
     inkscape:zoom="4.3229167"
     inkscape:cx="96"
     inkscape:cy="133.01205"
     inkscape:window-x="-9"
     inkscape:window-y="-9"
     inkscape:window-maximized="1"
     inkscape:current-layer="svg40"
     inkscape:document-rotation="0" />
  <mask
     id="A"
     width="154"
     height="154"
     x="19"
     y="19"
     mask-type="alpha"
     maskUnits="userSpaceOnUse">
    <use
       fill="#eff3f5"
       xlink:href="#C"
       id="use4" />
  </mask>
  <defs
     id="defs38">
    <path
       id="C"
       d="M19 79.8c0-21.282 0-31.923 4.142-40.052a38 38 0 0 1 16.607-16.607C47.877 19 58.518 19 79.8 19h32.4c21.282 0 31.923 0 40.052 4.142a38 38 0 0 1 16.606 16.607C173 47.877 173 58.518 173 79.8v32.4c0 21.282 0 31.923-4.142 40.052-3.643 7.15-9.456 12.963-16.606 16.606C144.123 173 133.482 173 112.2 173H79.8c-21.282 0-31.923 0-40.052-4.142a38 38 0 0 1-16.607-16.606C19 144.123 19 133.482 19 112.2V79.8z" />
  </defs>
</svg>
